#N canvas 701 83 524 543 10;
#X obj 92 375 dac~;
#X obj 72 196 KarPlux/KarSynth~;
#X obj 160 38 vsl 15 128 0 1 0 0 empty empty empty 0 -9 0 10 -262144
-1 -1 12700 1;
#X obj 250 31 vsl 15 128 0 1 0 0 empty empty empty 0 -9 0 10 -262144
-1 -1 6900 1;
#X obj 75 41 r 2KP;
#X text 242 13 blend;
#X text 154 17 feedback;
#N canvas 1 82 508 489 efeitos 1;
#X obj 116 45 inlet~;
#X obj 95 307 outlet~;
#X obj 163 309 outlet~;
#X obj 221 138 delwrite~ delayYo 1000;
#X floatatom 217 191 5 0 0 0 - - -, f 5;
#X obj 215 222 vd~ delayYo;
#X obj 234 267 s~ fb;
#X obj 240 57 r~ fb;
#X obj 240 94 *~ 0.3;
#X text 274 269 feedback;
#X obj 291 75 / 127;
#X obj 294 53 hsl 128 15 0 127 0 0 empty empty empty -2 -8 0 10 -262144
-1 -1 3800 1;
#X text 249 116 argument: nome delay \, tempo max de delay;
#X connect 0 0 1 0;
#X connect 0 0 2 0;
#X connect 0 0 3 0;
#X connect 4 0 5 0;
#X connect 5 0 1 0;
#X connect 5 0 2 0;
#X connect 5 0 6 0;
#X connect 7 0 8 0;
#X connect 8 0 3 0;
#X connect 10 0 8 1;
#X connect 11 0 10 0;
#X restore 75 292 pd efeitos;
#X connect 1 0 7 0;
#X connect 2 0 1 1;
#X connect 3 0 1 2;
#X connect 4 0 1 0;
#X connect 7 0 0 0;
#X connect 7 1 0 1;
