#N canvas 895 248 383 463 10;
#X obj 72 196 KarPlux/KarSynth~;
#X obj 160 38 vsl 15 128 0 1 0 0 empty empty empty 0 -9 0 10 -262144
-1 -1 12300 1;
#X obj 250 31 vsl 15 128 0 1 0 0 empty empty empty 0 -9 0 10 -262144
-1 -1 12700 1;
#X obj 75 41 r 2KP;
#X text 242 13 blend;
#X text 154 17 feedback;
#N canvas 25 209 572 507 efeitos 1;
#X obj 116 45 inlet~;
#X obj 223 125 delwrite~ delayYo 1000;
#X floatatom 23 175 5 0 0 0 - - -, f 5;
#X obj 21 206 vd~ delayYo;
#X obj 22 236 s~ fb;
#X obj 242 44 r~ fb;
#X obj 242 81 *~ 0.3;
#X text 62 238 feedback;
#X obj 293 62 / 127;
#X obj 296 40 hsl 128 15 0 127 0 0 empty empty empty -2 -8 0 10 -262144
-1 -1 8700 1;
#X text 251 103 argument: nome delay \, tempo max de delay;
#N canvas 656 80 645 337 chorus-flanger 0;
#X obj 89 14 inlet~;
#X obj 539 263 outlet~;
#X obj 421 269 outlet~;
#X obj 90 48 *~ 0.2;
#X text 145 52 baixar vol;
#X obj 113 83 s~ \$0-d;
#X obj 75 132 +~;
#X obj 33 81 r~ \$0-fb;
#X obj 83 180 delwrite~ \$0-a1 100;
#X obj 76 214 delwrite~ \$0-a2 100;
#X obj 262 24 inlet fb;
#X obj 262 61 clip -1 1;
#X obj 263 89 * 0.4;
#X obj 262 198 s~ \$0-fb;
#X obj 262 176 *~;
#X obj 376 24 inlet rate;
#X obj 376 46 * 5;
#X obj 376 95 + 1;
#X obj 376 117 osc~;
#X obj 376 183 vd~ \$0-a2;
#X obj 461 120 osc~;
#X obj 461 186 vd~ \$0-a1;
#X text 341 68 dois osc com batimento de 1Hz;
#X obj 422 231 *~ 1;
#X obj 560 21 inlet depth;
#X obj 560 43 * 2;
#X obj 540 233 r~ \$0-d;
#X obj 376 139 *~;
#X obj 462 142 *~;
#X obj 376 161 +~;
#X obj 461 164 +~;
#X connect 0 0 3 0;
#X connect 3 0 5 0;
#X connect 3 0 6 1;
#X connect 6 0 8 0;
#X connect 6 0 9 0;
#X connect 7 0 6 0;
#X connect 10 0 11 0;
#X connect 11 0 12 0;
#X connect 12 0 14 0;
#X connect 14 0 13 0;
#X connect 15 0 16 0;
#X connect 16 0 17 0;
#X connect 16 0 20 0;
#X connect 17 0 18 0;
#X connect 18 0 27 0;
#X connect 19 0 23 0;
#X connect 20 0 28 0;
#X connect 21 0 23 0;
#X connect 23 0 2 0;
#X connect 24 0 25 0;
#X connect 25 0 27 1;
#X connect 25 0 28 1;
#X connect 25 0 29 1;
#X connect 25 0 30 1;
#X connect 26 0 1 0;
#X connect 27 0 29 0;
#X connect 28 0 30 0;
#X connect 29 0 19 0;
#X connect 30 0 21 0;
#X restore 179 379 pd chorus-flanger;
#X obj 231 174 vsl 15 128 -127 127 0 0 empty empty empty 0 -9 0 10
-262144 -1 -1 12700 1;
#X obj 226 313 / 127;
#X obj 280 175 vsl 15 128 0 127 0 0 empty empty empty 0 -9 0 10 -262144
-1 -1 11000 1;
#X obj 275 314 / 127;
#X obj 337 175 vsl 15 128 0 127 0 0 empty empty empty 0 -9 0 10 -262144
-1 -1 12400 1;
#X obj 332 314 / 127;
#X obj 273 413 outlet~;
#X obj 180 413 outlet~;
#X floatatom 185 313 5 0 0 0 - - -, f 5;
#X text 164 238 -1 flanger;
#X text 171 220 1 chorus;
#X connect 0 0 11 0;
#X connect 0 0 1 0;
#X connect 2 0 3 0;
#X connect 3 0 4 0;
#X connect 3 0 11 0;
#X connect 5 0 6 0;
#X connect 6 0 1 0;
#X connect 8 0 6 1;
#X connect 9 0 8 0;
#X connect 11 0 19 0;
#X connect 11 0 18 0;
#X connect 12 0 13 0;
#X connect 13 0 11 1;
#X connect 13 0 20 0;
#X connect 14 0 15 0;
#X connect 15 0 11 2;
#X connect 16 0 17 0;
#X connect 17 0 11 3;
#X restore 75 292 pd efeitos;
#X obj 75 368 s~ out;
#X obj 75 314 hip~ 5;
#X obj 133 371 dac~;
#X connect 0 0 6 0;
#X connect 1 0 0 1;
#X connect 2 0 0 2;
#X connect 3 0 0 0;
#X connect 6 0 8 0;
#X connect 8 0 7 0;
#X connect 8 0 9 0;
