#N canvas 775 140 568 420 10;
#X obj 124 80 hid;
#X msg 66 22 refresh;
#X msg 129 43 open 10;
#X obj 96 78 tgl 15 0 empty empty empty 17 7 0 10 -262144 -1 -1 0 1
;
#X obj 74 273 route abs_x abs_y;
#X obj 74 151 route abs key;
#X obj 115 181 route btn_0 btn_1 btn_2 btn_3 btn_4 btn_5 btn_8 btn_9
;
#N canvas 746 106 411 235 see 0;
#N canvas 108 318 543 264 route 0;
#X obj 27 14 inlet;
#X obj 72 226 outlet;
#X obj 19 226 outlet;
#X obj 172 226 outlet;
#X obj 222 204 symbol;
#X obj 222 226 outlet;
#X obj 272 204 symbol;
#X obj 272 226 outlet;
#X obj 322 204 symbol;
#X obj 322 226 outlet;
#X obj 372 204 symbol;
#X obj 372 226 outlet;
#X obj 122 225 outlet;
#X obj 422 204 symbol;
#X obj 422 226 outlet;
#X obj 472 204 symbol;
#X obj 472 226 outlet;
#X obj 26 63 route open device poll total product manufacturer transport
type vendorID productID;
#X connect 0 0 17 0;
#X connect 4 0 5 0;
#X connect 6 0 7 0;
#X connect 8 0 9 0;
#X connect 10 0 11 0;
#X connect 13 0 14 0;
#X connect 15 0 16 0;
#X connect 17 0 2 0;
#X connect 17 1 1 0;
#X connect 17 2 12 0;
#X connect 17 3 3 0;
#X connect 17 4 4 0;
#X connect 17 5 6 0;
#X connect 17 6 8 0;
#X connect 17 7 10 0;
#X connect 17 8 13 0;
#X connect 17 9 15 0;
#X restore 117 70 pd route info;
#X obj 81 96 tgl 15 0 empty empty open 0 -6 0 8 -262144 -1 -1 0 1;
#X obj 110 22 inlet;
#X obj 123 43 print info;
#X symbolatom 304 93 0 0 0 0 productID - -;
#X symbolatom 304 112 0 0 0 0 vendorID - -;
#X symbolatom 304 151 0 0 0 0 transport - -;
#X symbolatom 304 171 0 0 0 0 manufacturer - -;
#X symbolatom 186 192 0 0 0 0 product - -;
#X floatatom 97 140 5 0 0 0 device - -, f 5;
#X floatatom 97 162 5 0 0 0 poll - -, f 5;
#X symbolatom 304 131 0 0 0 0 type - -;
#X floatatom 97 182 5 0 0 0 total - -, f 5;
#X connect 0 0 1 0;
#X connect 0 1 9 0;
#X connect 0 2 10 0;
#X connect 0 3 12 0;
#X connect 0 4 8 0;
#X connect 0 5 7 0;
#X connect 0 6 6 0;
#X connect 0 7 11 0;
#X connect 0 8 5 0;
#X connect 0 9 4 0;
#X connect 2 0 0 0;
#X connect 2 0 3 0;
#X restore 156 79 pd see device info;
#N canvas 187 153 764 421 visualize_grid 1;
#X obj 593 138 r Xgrid;
#X obj 477 306 translateXYZ;
#X obj 477 95 gemhead;
#X obj 661 138 r Ygrid;
#X obj 646 94 gemwin;
#X msg 646 32 create \, 1;
#X msg 662 60 0 \, destroy;
#X obj 42 59 sel 0 127 255;
#X obj 274 64 sel 0 127 255;
#X obj 42 86 bng 15 250 50 0 empty empty empty 17 7 0 10 -262144 -1
-1;
#X obj 67 87 bng 15 250 50 0 empty empty empty 17 7 0 10 -262144 -1
-1;
#X obj 93 88 bng 15 250 50 0 empty empty empty 17 7 0 10 -262144 -1
-1;
#X obj 274 90 bng 15 250 50 0 empty empty empty 17 7 0 10 -262144 -1
-1;
#X obj 301 91 bng 15 250 50 0 empty empty empty 17 7 0 10 -262144 -1
-1;
#X obj 330 90 bng 15 250 50 0 empty empty empty 17 7 0 10 -262144 -1
-1;
#X obj 91 264 f;
#X obj 124 263 + 1;
#X obj 28 121 t b b;
#X msg 28 153 1;
#X msg 84 122 0;
#X obj 91 319 s Xgrid;
#X obj 133 126 t b b;
#X msg 129 155 1;
#X msg 42 261 0;
#X obj 298 266 f;
#X obj 331 265 + 1;
#X obj 239 148 t b b;
#X msg 239 177 1;
#X msg 299 128 0;
#X obj 348 151 t b b;
#X msg 342 179 1;
#X msg 249 263 0;
#X obj 299 321 s Ygrid;
#X msg 340 227 1;
#X msg 383 228 -1;
#X msg 133 225 -1;
#X msg 168 225 1;
#X obj 91 295 mod 200;
#X obj 299 298 mod 200;
#X obj 66 213 gemhead;
#X obj 66 237 b;
#X obj 593 186 / 200;
#X obj 661 186 / 200;
#X obj 593 215 * 8;
#X obj 593 240 - 4;
#X obj 42 30 r bLR;
#X obj 274 35 r bUD;
#X obj 661 213 * 8;
#X obj 661 238 - 4;
#X obj 276 216 gemhead;
#X obj 276 240 b;
#X obj 425 46 s RES;
#X floatatom 425 26 5 0 0 0 - - -, f 5;
#X obj 154 295 r RES;
#X obj 361 300 r RES;
#X obj 620 162 r RES;
#X obj 688 162 r RES;
#X obj 477 165 color 1 0.4 0.7;
#X obj 477 343 square 0.2;
#X text 418 64 escolhe resolução da grid;
#X obj 166 36 loadbang;
#X msg 411 119 0;
#X connect 0 0 41 0;
#X connect 1 0 58 0;
#X connect 2 0 57 0;
#X connect 3 0 42 0;
#X connect 5 0 4 0;
#X connect 6 0 4 0;
#X connect 7 0 9 0;
#X connect 7 1 10 0;
#X connect 7 2 11 0;
#X connect 8 0 12 0;
#X connect 8 1 13 0;
#X connect 8 2 14 0;
#X connect 9 0 17 0;
#X connect 10 0 19 0;
#X connect 11 0 21 0;
#X connect 12 0 26 0;
#X connect 13 0 28 0;
#X connect 14 0 29 0;
#X connect 15 0 16 0;
#X connect 15 0 37 0;
#X connect 16 0 15 1;
#X connect 17 0 18 0;
#X connect 17 1 35 0;
#X connect 18 0 39 0;
#X connect 19 0 39 0;
#X connect 21 0 22 0;
#X connect 21 1 36 0;
#X connect 22 0 39 0;
#X connect 23 0 15 0;
#X connect 24 0 25 0;
#X connect 24 0 38 0;
#X connect 25 0 24 1;
#X connect 26 0 27 0;
#X connect 26 1 33 0;
#X connect 27 0 49 0;
#X connect 28 0 49 0;
#X connect 29 0 30 0;
#X connect 29 1 34 0;
#X connect 30 0 49 0;
#X connect 31 0 24 0;
#X connect 33 0 25 1;
#X connect 34 0 25 1;
#X connect 35 0 16 1;
#X connect 36 0 16 1;
#X connect 37 0 20 0;
#X connect 38 0 32 0;
#X connect 39 0 40 0;
#X connect 40 0 15 0;
#X connect 41 0 43 0;
#X connect 42 0 47 0;
#X connect 43 0 44 0;
#X connect 44 0 1 1;
#X connect 45 0 7 0;
#X connect 46 0 8 0;
#X connect 47 0 48 0;
#X connect 48 0 1 2;
#X connect 49 0 50 0;
#X connect 50 0 24 0;
#X connect 52 0 51 0;
#X connect 53 0 37 1;
#X connect 54 0 38 1;
#X connect 55 0 41 1;
#X connect 56 0 42 1;
#X connect 57 0 1 0;
#X connect 60 0 19 0;
#X connect 60 0 28 0;
#X connect 60 0 61 0;
#X connect 61 0 2 0;
#X restore 34 372 pd visualize_grid;
#X obj 74 304 s bLR;
#X obj 123 304 s bUD;
#X obj 365 56 key;
#X floatatom 400 93 5 0 0 0 - - -, f 5;
#X obj 365 108 sel;
#X obj 404 57 gemmouse;
#X obj 466 57 notein;
#X text 307 13 outros controladores \, keyboard \, \; mouse \, MIDI
\, som (bonk~ \, sigmund~);
#X obj 252 343 s 2KP;
#X msg 208 261 44;
#X obj 241 290 mtof;
#X obj 251 318 pack f 100;
#X msg 250 260 50;
#X obj 114 212 sel 1;
#X obj 157 211 sel 1;
#X text 293 283 LIGAÇÃO AO kARPLUX SYNTH;
#X connect 0 0 5 0;
#X connect 0 1 7 0;
#X connect 1 0 0 0;
#X connect 2 0 0 0;
#X connect 3 0 0 0;
#X connect 4 0 9 0;
#X connect 4 1 10 0;
#X connect 5 0 4 0;
#X connect 5 1 6 0;
#X connect 6 0 22 0;
#X connect 6 1 23 0;
#X connect 11 0 12 0;
#X connect 11 0 13 0;
#X connect 18 0 19 0;
#X connect 19 0 20 0;
#X connect 20 0 17 0;
#X connect 21 0 19 0;
#X connect 22 0 18 0;
#X connect 23 0 21 0;
