#N canvas 697 123 668 539 10;
#N canvas 0 50 450 250 (subpatch) 0;
#X array fita 132300 float 2;
#X coords 0 1 132300 -1 200 140 1;
#X restore 270 44 graph;
#X obj 91 42 adc~;
#X obj 97 108 tabwrite~ fita;
#X msg 154 68 bang;
#X obj 24 91 env~;
#X obj 25 174 vu 15 120 empty empty -1 -8 0 10 -66577 -1 1 0;
#X obj 24 130 - 100;
#X obj 140 428 output~;
#X obj 157 386 tabread4~ fita;
#X obj 155 301 phasor~;
#X obj 157 345 *~ 44100;
#X text 337 458 tamanho da table;
#X obj 414 351 soundfiler;
#X msg 414 320 write -wave \$1 fita;
#X obj 412 280 makefilename sample-%d.wav;
#X floatatom 415 234 5 0 0 0 - - -, f 5;
#X obj 411 257 f;
#X obj 391 229 bng 15 250 50 0 empty empty empty 17 7 0 10 -262144
-1 -1;
#X msg 414 383 read -resize amen.wav fita;
#X obj 153 229 / 44100;
#X floatatom 347 408 12 0 0 0 - - -, f 12;
#X obj 153 257 expr 1/$f1;
#X obj 348 438 s sample_length;
#X obj 154 202 r sample_length;
#X obj 221 321 r sample_length;
#X floatatom 503 63 5 0 0 0 - - -, f 5;
#X obj 502 95 * 44100;
#X msg 502 134 \; fita resize \$1 \; sample_length \$1;
#X text 500 16 escolhe o tamanho da table \; (duração da fita);
#X connect 1 0 2 0;
#X connect 1 0 4 0;
#X connect 1 1 2 0;
#X connect 3 0 2 0;
#X connect 4 0 6 0;
#X connect 6 0 5 0;
#X connect 8 0 7 0;
#X connect 8 0 7 1;
#X connect 9 0 10 0;
#X connect 10 0 8 0;
#X connect 12 0 20 0;
#X connect 13 0 12 0;
#X connect 14 0 13 0;
#X connect 15 0 16 1;
#X connect 16 0 14 0;
#X connect 17 0 16 0;
#X connect 18 0 12 0;
#X connect 19 0 21 0;
#X connect 20 0 22 0;
#X connect 21 0 9 0;
#X connect 23 0 19 0;
#X connect 24 0 10 1;
#X connect 25 0 26 0;
#X connect 26 0 27 0;
