#N canvas 755 332 272 592 10;
#X obj 80 104 f;
#X obj 112 105 + 1;
#X obj 80 129 mod 4;
#X obj 80 156 sel 0 1 2 3;
#X obj 80 39 tgl 15 0 empty empty empty 17 7 0 10 -262144 -1 -1 1 1
;
#X obj 80 185 vsl 15 128 0 127 0 0 empty empty empty 0 -9 0 10 -262144
-1 -1 11100 1;
#X floatatom 140 59 5 0 0 0 - - -, f 5;
#X obj 47 196 bng 15 250 50 0 empty empty empty 17 7 0 10 -262144 -1
-1;
#X obj 100 185 vsl 15 128 0 127 0 0 empty empty empty 0 -9 0 10 -262144
-1 -1 9400 1;
#X obj 124 185 vsl 15 128 0 127 0 0 empty empty empty 0 -9 0 10 -262144
-1 -1 8700 1;
#X obj 146 185 vsl 15 128 0 127 0 0 empty empty empty 0 -9 0 10 -262144
-1 -1 6900 1;
#X obj 80 342 mtof;
#X obj 80 80 metro 100;
#X floatatom 18 162 5 0 0 0 - - -, f 5;
#X obj 80 532 KarPlux/Karplux~;
#X obj 79 558 dac~;
#X obj 134 393 vsl 15 128 0 127 0 0 empty empty empty 0 -9 0 10 -262144
-1 -1 0 1;
#X obj 189 396 vsl 15 128 0 1 0 0 empty empty empty 0 -9 0 10 -262144
-1 -1 11700 1;
#X text 125 371 Vol;
#X text 177 376 Feedback;
#X connect 0 0 1 0;
#X connect 0 0 2 0;
#X connect 1 0 0 1;
#X connect 2 0 3 0;
#X connect 2 0 13 0;
#X connect 3 0 5 0;
#X connect 3 0 7 0;
#X connect 3 1 8 0;
#X connect 3 2 9 0;
#X connect 3 3 10 0;
#X connect 4 0 12 0;
#X connect 5 0 11 0;
#X connect 6 0 12 1;
#X connect 8 0 11 0;
#X connect 9 0 11 0;
#X connect 10 0 11 0;
#X connect 11 0 14 0;
#X connect 12 0 0 0;
#X connect 14 0 15 1;
#X connect 14 0 15 0;
#X connect 16 0 14 1;
#X connect 17 0 14 2;
