#N canvas 683 321 307 461 10;
#X obj 82 91 f;
#X obj 114 92 + 1;
#X obj 80 116 mod 4;
#X obj 80 146 sel 0 1 2 3;
#X obj 82 25 tgl 15 0 empty empty empty 17 7 0 10 -262144 -1 -1 1 1
;
#X obj 80 175 vsl 15 128 0 127 0 0 empty empty empty 0 -9 0 10 -262144
-1 -1 6300 1;
#X floatatom 119 37 5 0 0 0 - - -, f 5;
#X obj 32 182 bng 15 250 50 0 empty empty empty 17 7 0 10 -262144 -1
-1;
#X obj 100 175 vsl 15 128 0 127 0 0 empty empty empty 0 -9 0 10 -262144
-1 -1 5400 1;
#X obj 124 175 vsl 15 128 0 127 0 0 empty empty empty 0 -9 0 10 -262144
-1 -1 4200 1;
#X obj 146 175 vsl 15 128 0 127 0 0 empty empty empty 0 -9 0 10 -262144
-1 -1 7600 1;
#X obj 81 398 dac~;
#X obj 80 342 mtof;
#X obj 80 366 osc~;
#X obj 82 66 metro 100;
#X floatatom 29 141 5 0 0 0 - - -, f 5;
#X connect 0 0 1 0;
#X connect 0 0 2 0;
#X connect 1 0 0 1;
#X connect 2 0 3 0;
#X connect 2 0 15 0;
#X connect 3 0 5 0;
#X connect 3 0 7 0;
#X connect 3 1 8 0;
#X connect 3 2 9 0;
#X connect 3 3 10 0;
#X connect 4 0 14 0;
#X connect 5 0 12 0;
#X connect 6 0 14 1;
#X connect 8 0 12 0;
#X connect 9 0 12 0;
#X connect 10 0 12 0;
#X connect 12 0 13 0;
#X connect 13 0 11 0;
#X connect 13 0 11 1;
#X connect 14 0 0 0;
