#N canvas 242 65 307 461 10;
#X obj 85 84 f;
#X obj 117 85 + 1;
#X obj 83 109 mod 4;
#X obj 79 146 sel 0 1 2 3;
#X obj 82 18 tgl 15 0 empty empty empty 17 7 0 10 -262144 -1 -1 0 1
;
#X obj 80 175 vsl 15 128 0 127 0 0 empty empty empty 0 -9 0 10 -262144
-1 -1 4700 1;
#X floatatom 119 30 5 0 0 0 - - -, f 5;
#X obj 32 182 bng 15 250 50 0 empty empty empty 17 7 0 10 -262144 -1
-1;
#X obj 100 176 vsl 15 128 0 127 0 0 empty empty empty 0 -9 0 10 -262144
-1 -1 7000 1;
#X obj 124 180 vsl 15 128 0 127 0 0 empty empty empty 0 -9 0 10 -262144
-1 -1 4900 1;
#X obj 146 181 vsl 15 128 0 127 0 0 empty empty empty 0 -9 0 10 -262144
-1 -1 7600 1;
#X obj 120 342 mtof;
#X obj 82 59 metro 100;
#X floatatom 29 141 5 0 0 0 - - -, f 5;
#X obj 128 382 KarPlux/Karplux~;
#X obj 127 408 dac~;
#X floatatom 231 325 5 0 0 0 - - -, f 5;
#X connect 0 0 1 0;
#X connect 0 0 2 0;
#X connect 1 0 0 1;
#X connect 2 0 3 0;
#X connect 2 0 13 0;
#X connect 3 0 5 0;
#X connect 3 0 7 0;
#X connect 3 1 8 0;
#X connect 3 2 9 0;
#X connect 3 3 10 0;
#X connect 4 0 12 0;
#X connect 5 0 11 0;
#X connect 6 0 12 1;
#X connect 8 0 11 0;
#X connect 9 0 11 0;
#X connect 10 0 11 0;
#X connect 11 0 14 0;
#X connect 12 0 0 0;
#X connect 14 0 15 1;
#X connect 14 0 15 0;
#X connect 16 0 14 1;
