#N canvas 1 57 450 300 10;
#X obj 165 89 gemwin;
#X msg 194 17 create \, 1;
#X msg 216 65 0 \, destroy;
#N canvas 1 226 807 444 visualize_grid 0;
#X obj 569 138 r Xgrid;
#X obj 469 305 translateXYZ;
#X obj 456 95 gemhead;
#X obj 639 134 r Ygrid;
#X obj 679 94 gemwin;
#X msg 679 32 create \, 1;
#X msg 695 60 0 \, destroy;
#X obj 21 59 sel 0 127 255;
#X obj 253 64 sel 0 127 255;
#X obj 11 91 bng 15 250 50 0 empty empty empty 17 7 0 10 -262144 -1
-1;
#X obj 44 92 bng 15 250 50 0 empty empty empty 17 7 0 10 -262144 -1
-1;
#X obj 78 92 bng 15 250 50 0 empty empty empty 17 7 0 10 -262144 -1
-1;
#X obj 246 97 bng 15 250 50 0 empty empty empty 17 7 0 10 -262144 -1
-1;
#X obj 273 98 bng 15 250 50 0 empty empty empty 17 7 0 10 -262144 -1
-1;
#X obj 302 97 bng 15 250 50 0 empty empty empty 17 7 0 10 -262144 -1
-1;
#X obj 70 273 f;
#X obj 103 272 + 1;
#X obj 11 155 t b b;
#X msg 4 196 1;
#X msg 71 135 0;
#X obj 83 325 s Xgrid;
#X obj 120 158 t b b;
#X msg 114 186 1;
#X floatatom 29 309 5 0 0 0 - - -, f 5;
#X msg 21 270 0;
#X obj 277 266 f;
#X obj 310 265 + 1;
#X obj 218 148 t b b;
#X msg 211 189 1;
#X msg 278 128 0;
#X obj 327 151 t b b;
#X msg 321 179 1;
#X floatatom 236 302 5 0 0 0 - - -, f 5;
#X msg 228 263 0;
#X obj 283 316 s Ygrid;
#X msg 319 227 1;
#X msg 362 228 -1;
#X msg 112 234 -1;
#X msg 147 234 1;
#X obj 74 300 mod 200;
#X obj 284 294 mod 200;
#X obj 45 222 gemhead;
#X obj 46 246 b;
#X obj 572 186 / 200;
#X obj 640 186 / 200;
#X obj 579 219 * 8;
#X obj 577 244 - 4;
#X obj 20 30 r bLR;
#X obj 236 35 r bUD;
#X obj 640 213 * 8;
#X obj 639 237 - 4;
#X obj 255 216 gemhead;
#X obj 260 240 b;
#X obj 399 47 s RES;
#X floatatom 404 26 5 0 0 0 - - -, f 5;
#X obj 144 278 r RES;
#X obj 336 276 r RES;
#X obj 597 163 r RES;
#X obj 659 161 r RES;
#X obj 457 165 color 1 0.4 0.7;
#X obj 466 343 square 0.2;
#X text 451 34 escolhe resolução da grid;
#X connect 0 0 43 0;
#X connect 1 0 60 0;
#X connect 2 0 59 0;
#X connect 3 0 44 0;
#X connect 5 0 4 0;
#X connect 6 0 4 0;
#X connect 7 0 9 0;
#X connect 7 1 10 0;
#X connect 7 2 11 0;
#X connect 8 0 12 0;
#X connect 8 1 13 0;
#X connect 8 2 14 0;
#X connect 9 0 17 0;
#X connect 10 0 19 0;
#X connect 11 0 21 0;
#X connect 12 0 27 0;
#X connect 13 0 29 0;
#X connect 14 0 30 0;
#X connect 15 0 16 0;
#X connect 15 0 23 0;
#X connect 15 0 39 0;
#X connect 16 0 15 1;
#X connect 17 0 18 0;
#X connect 17 1 37 0;
#X connect 18 0 41 0;
#X connect 19 0 41 0;
#X connect 21 0 22 0;
#X connect 21 1 38 0;
#X connect 22 0 41 0;
#X connect 24 0 15 0;
#X connect 25 0 26 0;
#X connect 25 0 32 0;
#X connect 25 0 40 0;
#X connect 26 0 25 1;
#X connect 27 0 28 0;
#X connect 27 1 35 0;
#X connect 28 0 51 0;
#X connect 29 0 51 0;
#X connect 30 0 31 0;
#X connect 30 1 36 0;
#X connect 31 0 51 0;
#X connect 33 0 25 0;
#X connect 35 0 26 1;
#X connect 36 0 26 1;
#X connect 37 0 16 1;
#X connect 38 0 16 1;
#X connect 39 0 20 0;
#X connect 40 0 34 0;
#X connect 41 0 42 0;
#X connect 42 0 15 0;
#X connect 43 0 45 0;
#X connect 44 0 49 0;
#X connect 45 0 46 0;
#X connect 46 0 1 1;
#X connect 47 0 7 0;
#X connect 48 0 8 0;
#X connect 49 0 50 0;
#X connect 50 0 1 2;
#X connect 51 0 52 0;
#X connect 52 0 25 0;
#X connect 54 0 53 0;
#X connect 55 0 39 1;
#X connect 56 0 40 1;
#X connect 57 0 43 1;
#X connect 58 0 44 1;
#X connect 59 0 1 0;
#X restore 164 141 pd visualize_grid;
#X connect 1 0 0 0;
#X connect 2 0 0 0;
